<svg id="Layer_1" data-name="Layer 1" xmlns="http://www.w3.org/2000/svg" viewBox="0 0 1183.44 216.07"><title>logo-long</title><polygon points="724.48 117 717.1 144 697.43 216 724.43 216 744.1 144 751.48 117 756.21 99.69 742.82 49.85 724.48 117"/><polygon points="814.85 117 783.43 0 756.43 0 769.82 49.85 769.82 49.85 787.85 117 795.1 144 814.43 216 841.43 216 822.1 144 814.85 117"/><polygon points="697.43 0 639.43 0 612.43 0 612.43 27 612.43 216 639.43 216 639.43 27 697.43 27 697.43 0"/><rect x="553.44" width="31" height="27"/><path d="M940.44,0h-18V27h18a45,45,0,0,1,45,45v72a45,45,0,0,1-45,45h-45V0h-27V216h72a72,72,0,0,0,72-72V72A72,72,0,0,0,940.44,0Z"/><polygon points="499.44 87.81 499.44 88 499.44 117 526.43 117 526.43 0 499.44 0 499.44 87.81"/><path d="M454.44,189a45,45,0,0,1-45-45V0h-27V144a72,72,0,0,0,144,0h-27A45,45,0,0,1,454.44,189Z"/><polygon points="1066.48 117 1059.1 144 1039.43 216 1066.43 216 1086.1 144 1093.48 117 1098.2 99.69 1084.82 49.85 1066.48 117"/><polygon points="1164.1 144 1156.85 117 1125.43 0 1098.43 0 1111.82 49.85 1111.82 49.85 1129.85 117 1137.1 144 1156.43 216 1183.43 216 1164.1 144"/><polygon points="124.75 0 0 216.07 96.14 216.07 220.89 0 124.75 0"/><polygon points="310.84 137.8 235.67 7.61 190.52 85.81 242.18 175.29 243.15 176.97 204.01 137.87 160.5 137.87 115.35 216.07 265.69 216.07 310.84 137.87 310.8 137.87 310.84 137.8"/></svg>